<mxfile host="app.diagrams.net" modified="2024-01-03T15:34:13.820Z" agent="Mozilla/5.0 (Windows NT 10.0; Win64; x64) AppleWebKit/537.36 (KHTML, like Gecko) Chrome/119.0.0.0 Safari/537.36 OPR/105.0.0.0" etag="rcoaxmHVADMvb82P60oI" version="22.1.16" type="github">
  <diagram name="Page-1" id="e7e014a7-5840-1c2e-5031-d8a46d1fe8dd">
    <mxGraphModel dx="2033" dy="1118" grid="1" gridSize="10" guides="1" tooltips="1" connect="1" arrows="1" fold="1" page="1" pageScale="1" pageWidth="1169" pageHeight="826" background="none" math="0" shadow="0">
      <root>
        <mxCell id="0" />
        <mxCell id="1" parent="0" />
        <mxCell id="2" value="E-banco Imobiliario" style="swimlane;whiteSpace=wrap" parent="1" vertex="1">
          <mxGeometry x="210" y="50" width="600" height="710" as="geometry" />
        </mxCell>
        <mxCell id="6o6y0jesGIVdZXb0caTs-42" value="Inicia Partida" style="ellipse;whiteSpace=wrap;html=1;" parent="2" vertex="1">
          <mxGeometry x="40" y="110" width="120" height="80" as="geometry" />
        </mxCell>
        <mxCell id="6o6y0jesGIVdZXb0caTs-54" style="edgeStyle=orthogonalEdgeStyle;rounded=0;orthogonalLoop=1;jettySize=auto;html=1;entryX=0.5;entryY=1;entryDx=0;entryDy=0;dashed=1;" parent="2" source="6o6y0jesGIVdZXb0caTs-43" target="6o6y0jesGIVdZXb0caTs-45" edge="1">
          <mxGeometry relative="1" as="geometry" />
        </mxCell>
        <mxCell id="6o6y0jesGIVdZXb0caTs-55" value="&amp;lt;&amp;lt;Include&amp;gt;&amp;gt;" style="edgeLabel;html=1;align=center;verticalAlign=middle;resizable=0;points=[];" parent="6o6y0jesGIVdZXb0caTs-54" vertex="1" connectable="0">
          <mxGeometry x="-0.0675" relative="1" as="geometry">
            <mxPoint as="offset" />
          </mxGeometry>
        </mxCell>
        <mxCell id="6o6y0jesGIVdZXb0caTs-43" value="Adiciona giro de rendimento" style="ellipse;whiteSpace=wrap;html=1;" parent="2" vertex="1">
          <mxGeometry x="30" y="283" width="120" height="80" as="geometry" />
        </mxCell>
        <mxCell id="6o6y0jesGIVdZXb0caTs-62" style="edgeStyle=orthogonalEdgeStyle;rounded=0;orthogonalLoop=1;jettySize=auto;html=1;entryX=1;entryY=0.5;entryDx=0;entryDy=0;dashed=1;" parent="2" source="6o6y0jesGIVdZXb0caTs-44" target="6o6y0jesGIVdZXb0caTs-56" edge="1">
          <mxGeometry relative="1" as="geometry" />
        </mxCell>
        <mxCell id="6o6y0jesGIVdZXb0caTs-63" value="&amp;lt;&amp;lt;extend&amp;gt;&amp;gt;" style="edgeLabel;html=1;align=center;verticalAlign=middle;resizable=0;points=[];" parent="6o6y0jesGIVdZXb0caTs-62" vertex="1" connectable="0">
          <mxGeometry x="-0.2" relative="1" as="geometry">
            <mxPoint as="offset" />
          </mxGeometry>
        </mxCell>
        <mxCell id="6o6y0jesGIVdZXb0caTs-44" value="Debita valor" style="ellipse;whiteSpace=wrap;html=1;" parent="2" vertex="1">
          <mxGeometry x="270" y="410" width="120" height="80" as="geometry" />
        </mxCell>
        <mxCell id="6o6y0jesGIVdZXb0caTs-66" style="edgeStyle=orthogonalEdgeStyle;rounded=0;orthogonalLoop=1;jettySize=auto;html=1;dashed=1;" parent="2" source="6o6y0jesGIVdZXb0caTs-45" target="6o6y0jesGIVdZXb0caTs-64" edge="1">
          <mxGeometry relative="1" as="geometry" />
        </mxCell>
        <mxCell id="6o6y0jesGIVdZXb0caTs-68" value="&amp;lt;&amp;lt;Include&amp;gt;&amp;gt;" style="edgeLabel;html=1;align=center;verticalAlign=middle;resizable=0;points=[];" parent="6o6y0jesGIVdZXb0caTs-66" vertex="1" connectable="0">
          <mxGeometry x="0.1953" y="1" relative="1" as="geometry">
            <mxPoint as="offset" />
          </mxGeometry>
        </mxCell>
        <mxCell id="6o6y0jesGIVdZXb0caTs-45" value="Adiciona Valor" style="ellipse;whiteSpace=wrap;html=1;" parent="2" vertex="1">
          <mxGeometry x="270" y="180" width="120" height="80" as="geometry" />
        </mxCell>
        <mxCell id="6o6y0jesGIVdZXb0caTs-52" style="edgeStyle=orthogonalEdgeStyle;rounded=0;orthogonalLoop=1;jettySize=auto;html=1;entryX=0.533;entryY=-0.002;entryDx=0;entryDy=0;entryPerimeter=0;dashed=1;" parent="2" source="6o6y0jesGIVdZXb0caTs-42" target="6o6y0jesGIVdZXb0caTs-45" edge="1">
          <mxGeometry relative="1" as="geometry" />
        </mxCell>
        <mxCell id="6o6y0jesGIVdZXb0caTs-53" value="&amp;lt;&amp;lt;Include&amp;gt;&amp;gt;" style="edgeLabel;html=1;align=center;verticalAlign=middle;resizable=0;points=[];" parent="6o6y0jesGIVdZXb0caTs-52" vertex="1" connectable="0">
          <mxGeometry x="0.0846" y="2" relative="1" as="geometry">
            <mxPoint as="offset" />
          </mxGeometry>
        </mxCell>
        <mxCell id="6o6y0jesGIVdZXb0caTs-71" style="edgeStyle=orthogonalEdgeStyle;rounded=0;orthogonalLoop=1;jettySize=auto;html=1;entryX=0.5;entryY=1;entryDx=0;entryDy=0;exitX=0.5;exitY=1;exitDx=0;exitDy=0;dashed=1;" parent="2" source="6o6y0jesGIVdZXb0caTs-56" target="6o6y0jesGIVdZXb0caTs-64" edge="1">
          <mxGeometry relative="1" as="geometry">
            <Array as="points">
              <mxPoint x="90" y="550" />
              <mxPoint x="500" y="550" />
            </Array>
          </mxGeometry>
        </mxCell>
        <mxCell id="6o6y0jesGIVdZXb0caTs-72" value="&amp;lt;&amp;lt;Include&amp;gt;&amp;gt;" style="edgeLabel;html=1;align=center;verticalAlign=middle;resizable=0;points=[];" parent="6o6y0jesGIVdZXb0caTs-71" vertex="1" connectable="0">
          <mxGeometry x="0.3703" y="-2" relative="1" as="geometry">
            <mxPoint x="-63" as="offset" />
          </mxGeometry>
        </mxCell>
        <mxCell id="6o6y0jesGIVdZXb0caTs-56" value="Verificar saldo" style="ellipse;whiteSpace=wrap;html=1;" parent="2" vertex="1">
          <mxGeometry x="30" y="410" width="120" height="80" as="geometry" />
        </mxCell>
        <mxCell id="6o6y0jesGIVdZXb0caTs-64" value="Saldo" style="ellipse;whiteSpace=wrap;html=1;" parent="2" vertex="1">
          <mxGeometry x="440" y="323" width="120" height="80" as="geometry" />
        </mxCell>
        <mxCell id="6o6y0jesGIVdZXb0caTs-69" style="edgeStyle=orthogonalEdgeStyle;rounded=0;orthogonalLoop=1;jettySize=auto;html=1;entryX=0.005;entryY=0.58;entryDx=0;entryDy=0;entryPerimeter=0;dashed=1;" parent="2" source="6o6y0jesGIVdZXb0caTs-44" target="6o6y0jesGIVdZXb0caTs-64" edge="1">
          <mxGeometry relative="1" as="geometry" />
        </mxCell>
        <mxCell id="6o6y0jesGIVdZXb0caTs-70" value="&amp;lt;&amp;lt;Include&amp;gt;&amp;gt;" style="edgeLabel;html=1;align=center;verticalAlign=middle;resizable=0;points=[];" parent="6o6y0jesGIVdZXb0caTs-69" vertex="1" connectable="0">
          <mxGeometry x="0.1861" y="1" relative="1" as="geometry">
            <mxPoint as="offset" />
          </mxGeometry>
        </mxCell>
        <mxCell id="6o6y0jesGIVdZXb0caTs-46" style="edgeStyle=orthogonalEdgeStyle;rounded=0;orthogonalLoop=1;jettySize=auto;html=1;entryX=0;entryY=0.5;entryDx=0;entryDy=0;" parent="1" source="6o6y0jesGIVdZXb0caTs-41" target="6o6y0jesGIVdZXb0caTs-42" edge="1">
          <mxGeometry relative="1" as="geometry">
            <Array as="points">
              <mxPoint x="200" y="310" />
              <mxPoint x="200" y="200" />
            </Array>
          </mxGeometry>
        </mxCell>
        <mxCell id="6o6y0jesGIVdZXb0caTs-47" style="edgeStyle=orthogonalEdgeStyle;rounded=0;orthogonalLoop=1;jettySize=auto;html=1;entryX=0;entryY=0.5;entryDx=0;entryDy=0;" parent="1" source="6o6y0jesGIVdZXb0caTs-41" target="6o6y0jesGIVdZXb0caTs-43" edge="1">
          <mxGeometry relative="1" as="geometry">
            <Array as="points">
              <mxPoint x="200" y="310" />
              <mxPoint x="200" y="373" />
            </Array>
          </mxGeometry>
        </mxCell>
        <mxCell id="6o6y0jesGIVdZXb0caTs-57" style="edgeStyle=orthogonalEdgeStyle;rounded=0;orthogonalLoop=1;jettySize=auto;html=1;" parent="1" source="6o6y0jesGIVdZXb0caTs-41" target="6o6y0jesGIVdZXb0caTs-56" edge="1">
          <mxGeometry relative="1" as="geometry">
            <Array as="points">
              <mxPoint x="200" y="310" />
              <mxPoint x="200" y="510" />
            </Array>
          </mxGeometry>
        </mxCell>
        <mxCell id="6o6y0jesGIVdZXb0caTs-41" value="Banqueiro" style="shape=umlActor;verticalLabelPosition=bottom;verticalAlign=top;html=1;outlineConnect=0;" parent="1" vertex="1">
          <mxGeometry x="70" y="280" width="30" height="60" as="geometry" />
        </mxCell>
        <mxCell id="6o6y0jesGIVdZXb0caTs-50" value="Empresario" style="shape=umlActor;verticalLabelPosition=bottom;verticalAlign=top;html=1;outlineConnect=0;" parent="1" vertex="1">
          <mxGeometry x="900" y="280" width="30" height="60" as="geometry" />
        </mxCell>
        <mxCell id="6o6y0jesGIVdZXb0caTs-65" style="edgeStyle=orthogonalEdgeStyle;rounded=0;orthogonalLoop=1;jettySize=auto;html=1;entryX=1.005;entryY=0.573;entryDx=0;entryDy=0;entryPerimeter=0;" parent="1" source="6o6y0jesGIVdZXb0caTs-50" target="6o6y0jesGIVdZXb0caTs-64" edge="1">
          <mxGeometry relative="1" as="geometry">
            <Array as="points">
              <mxPoint x="830" y="310" />
              <mxPoint x="830" y="419" />
            </Array>
          </mxGeometry>
        </mxCell>
        <mxCell id="6o6y0jesGIVdZXb0caTs-74" value="E-banco Imobiliario" style="swimlane;whiteSpace=wrap" parent="1" vertex="1">
          <mxGeometry x="1434" y="58" width="590" height="710" as="geometry" />
        </mxCell>
        <mxCell id="6o6y0jesGIVdZXb0caTs-76" value="Compra propriedade" style="ellipse;whiteSpace=wrap;html=1;" parent="6o6y0jesGIVdZXb0caTs-74" vertex="1">
          <mxGeometry x="220" y="422" width="120" height="80" as="geometry" />
        </mxCell>
        <mxCell id="6o6y0jesGIVdZXb0caTs-100" style="edgeStyle=orthogonalEdgeStyle;rounded=0;orthogonalLoop=1;jettySize=auto;html=1;dashed=1;startArrow=classic;startFill=1;endArrow=none;endFill=0;exitX=0.5;exitY=0;exitDx=0;exitDy=0;" parent="6o6y0jesGIVdZXb0caTs-74" source="6o6y0jesGIVdZXb0caTs-90" target="6o6y0jesGIVdZXb0caTs-76" edge="1">
          <mxGeometry relative="1" as="geometry">
            <Array as="points">
              <mxPoint x="123" y="462" />
            </Array>
          </mxGeometry>
        </mxCell>
        <mxCell id="6o6y0jesGIVdZXb0caTs-104" value="&amp;lt;&amp;lt;include&amp;gt;&amp;gt;" style="edgeLabel;html=1;align=center;verticalAlign=middle;resizable=0;points=[];" parent="6o6y0jesGIVdZXb0caTs-100" vertex="1" connectable="0">
          <mxGeometry x="-0.1014" y="-3" relative="1" as="geometry">
            <mxPoint as="offset" />
          </mxGeometry>
        </mxCell>
        <mxCell id="6o6y0jesGIVdZXb0caTs-103" value="&amp;lt;&amp;lt;extend&amp;gt;&amp;gt;" style="edgeStyle=orthogonalEdgeStyle;rounded=0;orthogonalLoop=1;jettySize=auto;html=1;dashed=1;" parent="6o6y0jesGIVdZXb0caTs-74" source="6o6y0jesGIVdZXb0caTs-90" target="6o6y0jesGIVdZXb0caTs-91" edge="1">
          <mxGeometry relative="1" as="geometry" />
        </mxCell>
        <mxCell id="6o6y0jesGIVdZXb0caTs-90" value="Verificar saldo" style="ellipse;whiteSpace=wrap;html=1;" parent="6o6y0jesGIVdZXb0caTs-74" vertex="1">
          <mxGeometry x="63" y="290" width="120" height="80" as="geometry" />
        </mxCell>
        <mxCell id="6o6y0jesGIVdZXb0caTs-91" value="Saldo" style="ellipse;whiteSpace=wrap;html=1;" parent="6o6y0jesGIVdZXb0caTs-74" vertex="1">
          <mxGeometry x="390" y="422" width="120" height="80" as="geometry" />
        </mxCell>
        <mxCell id="6o6y0jesGIVdZXb0caTs-105" value="hipotecar" style="ellipse;whiteSpace=wrap;html=1;" parent="6o6y0jesGIVdZXb0caTs-74" vertex="1">
          <mxGeometry x="230" y="560" width="120" height="80" as="geometry" />
        </mxCell>
        <mxCell id="6o6y0jesGIVdZXb0caTs-111" style="edgeStyle=orthogonalEdgeStyle;rounded=0;orthogonalLoop=1;jettySize=auto;html=1;entryX=0.5;entryY=0;entryDx=0;entryDy=0;dashed=1;" parent="6o6y0jesGIVdZXb0caTs-74" source="6o6y0jesGIVdZXb0caTs-107" target="6o6y0jesGIVdZXb0caTs-90" edge="1">
          <mxGeometry relative="1" as="geometry">
            <Array as="points">
              <mxPoint x="280" y="190" />
              <mxPoint x="123" y="190" />
            </Array>
          </mxGeometry>
        </mxCell>
        <mxCell id="6o6y0jesGIVdZXb0caTs-112" value="&amp;lt;&amp;lt;extend&amp;gt;&amp;gt;" style="edgeLabel;html=1;align=center;verticalAlign=middle;resizable=0;points=[];" parent="6o6y0jesGIVdZXb0caTs-111" vertex="1" connectable="0">
          <mxGeometry x="-0.0241" y="-1" relative="1" as="geometry">
            <mxPoint as="offset" />
          </mxGeometry>
        </mxCell>
        <mxCell id="6o6y0jesGIVdZXb0caTs-107" value="Negociar Imóvel" style="ellipse;whiteSpace=wrap;html=1;" parent="6o6y0jesGIVdZXb0caTs-74" vertex="1">
          <mxGeometry x="220" y="90" width="120" height="80" as="geometry" />
        </mxCell>
        <mxCell id="6o6y0jesGIVdZXb0caTs-96" style="edgeStyle=orthogonalEdgeStyle;rounded=0;orthogonalLoop=1;jettySize=auto;html=1;entryX=0;entryY=0.5;entryDx=0;entryDy=0;" parent="1" source="6o6y0jesGIVdZXb0caTs-97" target="6o6y0jesGIVdZXb0caTs-90" edge="1">
          <mxGeometry relative="1" as="geometry">
            <Array as="points">
              <mxPoint x="1414" y="336" />
              <mxPoint x="1414" y="388" />
            </Array>
          </mxGeometry>
        </mxCell>
        <mxCell id="6o6y0jesGIVdZXb0caTs-108" style="edgeStyle=orthogonalEdgeStyle;rounded=0;orthogonalLoop=1;jettySize=auto;html=1;" parent="1" source="6o6y0jesGIVdZXb0caTs-97" target="6o6y0jesGIVdZXb0caTs-107" edge="1">
          <mxGeometry relative="1" as="geometry">
            <Array as="points">
              <mxPoint x="1414" y="336" />
              <mxPoint x="1414" y="188" />
            </Array>
          </mxGeometry>
        </mxCell>
        <mxCell id="6o6y0jesGIVdZXb0caTs-113" style="edgeStyle=orthogonalEdgeStyle;rounded=0;orthogonalLoop=1;jettySize=auto;html=1;entryX=0;entryY=0.5;entryDx=0;entryDy=0;" parent="1" source="6o6y0jesGIVdZXb0caTs-97" target="6o6y0jesGIVdZXb0caTs-105" edge="1">
          <mxGeometry relative="1" as="geometry">
            <Array as="points">
              <mxPoint x="1414" y="336" />
              <mxPoint x="1414" y="658" />
            </Array>
          </mxGeometry>
        </mxCell>
        <mxCell id="6o6y0jesGIVdZXb0caTs-97" value="Empresário 1" style="shape=umlActor;verticalLabelPosition=bottom;verticalAlign=top;html=1;outlineConnect=0;" parent="1" vertex="1">
          <mxGeometry x="1304" y="306" width="30" height="60" as="geometry" />
        </mxCell>
        <mxCell id="6o6y0jesGIVdZXb0caTs-114" style="edgeStyle=orthogonalEdgeStyle;rounded=0;orthogonalLoop=1;jettySize=auto;html=1;entryX=1;entryY=0.5;entryDx=0;entryDy=0;" parent="1" source="6o6y0jesGIVdZXb0caTs-98" target="6o6y0jesGIVdZXb0caTs-105" edge="1">
          <mxGeometry relative="1" as="geometry">
            <Array as="points">
              <mxPoint x="2074" y="618" />
              <mxPoint x="2074" y="658" />
            </Array>
          </mxGeometry>
        </mxCell>
        <mxCell id="6o6y0jesGIVdZXb0caTs-98" value="Banqueiro" style="shape=umlActor;verticalLabelPosition=bottom;verticalAlign=top;html=1;outlineConnect=0;" parent="1" vertex="1">
          <mxGeometry x="2174" y="588" width="30" height="60" as="geometry" />
        </mxCell>
        <mxCell id="6o6y0jesGIVdZXb0caTs-102" style="edgeStyle=orthogonalEdgeStyle;rounded=0;orthogonalLoop=1;jettySize=auto;html=1;entryX=1;entryY=0.5;entryDx=0;entryDy=0;" parent="1" source="6o6y0jesGIVdZXb0caTs-98" target="6o6y0jesGIVdZXb0caTs-91" edge="1">
          <mxGeometry relative="1" as="geometry">
            <mxPoint x="2124" y="498" as="targetPoint" />
            <Array as="points">
              <mxPoint x="2074" y="618" />
              <mxPoint x="2074" y="520" />
            </Array>
          </mxGeometry>
        </mxCell>
        <mxCell id="6o6y0jesGIVdZXb0caTs-110" style="edgeStyle=orthogonalEdgeStyle;rounded=0;orthogonalLoop=1;jettySize=auto;html=1;entryX=1;entryY=0.5;entryDx=0;entryDy=0;" parent="1" source="6o6y0jesGIVdZXb0caTs-109" target="6o6y0jesGIVdZXb0caTs-107" edge="1">
          <mxGeometry relative="1" as="geometry">
            <Array as="points">
              <mxPoint x="2054" y="298" />
              <mxPoint x="2054" y="188" />
            </Array>
          </mxGeometry>
        </mxCell>
        <mxCell id="6o6y0jesGIVdZXb0caTs-109" value="Empresário 2&lt;br&gt;" style="shape=umlActor;verticalLabelPosition=bottom;verticalAlign=top;html=1;outlineConnect=0;" parent="1" vertex="1">
          <mxGeometry x="2104" y="268" width="30" height="60" as="geometry" />
        </mxCell>
      </root>
    </mxGraphModel>
  </diagram>
</mxfile>
